# xmcd
#
# Track frame offsets:
#	150
#	16340
#	27429
#	40042
#	53866
#	69192
#	82308
#	96265
#	108388
#	123615
#	134904
#	151768
#
# Disc length: 2239 seconds
# Revision: 0
# Processed by: cddbd v1.5.2PL0 Copyright (c) Steve Scherf et al.
# Submitted via: dBpowerAMP V12.0
#
DISCID=a208bd0c
DTITLE=Alan Bibey and Grasstowne - Grasstowne 4
DYEAR=2015
DGENRE=Country
TTITLE0=Cry Baby Cry
TTITLE1=Old Hen
TTITLE2=You Can Feel It In Your Soul
TTITLE3=I'm Country
TTITLE4=Look What I've Done to Me
TTITLE5=Cold, Dark Ground
TTITLE6=You Let Me Down
TTITLE7=Can't Stop the Rain
TTITLE8=This Old Guitar and Me
TTITLE9=Heaven
TTITLE10=Worried Man Blues
TTITLE11=Darby's Castle
EXTD=
EXTT0=
EXTT1=
EXTT2=
EXTT3=
EXTT4=
EXTT5=
EXTT6=
EXTT7=
EXTT8=
EXTT9=
EXTT10=
EXTT11=
PLAYORDER=
